<mxfile host="app.diagrams.net" agent="Mozilla/5.0 (Windows NT 10.0; Win64; x64) AppleWebKit/537.36 (KHTML, like Gecko) Chrome/131.0.0.0 Safari/537.36" version="25.0.3">
  <diagram name="第 1 页" id="xF0TFhV3M4CmZuF5hkXa">
    <mxGraphModel dx="1221" dy="1894" grid="1" gridSize="10" guides="1" tooltips="1" connect="1" arrows="1" fold="1" page="1" pageScale="1" pageWidth="827" pageHeight="1169" math="0" shadow="0">
      <root>
        <mxCell id="0" />
        <mxCell id="1" parent="0" />
        <mxCell id="G-g3rH76fT-ggbkgVnR4-21" value="" style="points=[[0.145,0.145,0],[0.5,0,0],[0.855,0.145,0],[1,0.5,0],[0.855,0.855,0],[0.5,1,0],[0.145,0.855,0],[0,0.5,0]];shape=mxgraph.bpmn.event;html=1;verticalLabelPosition=bottom;labelBackgroundColor=#ffffff;verticalAlign=top;align=center;perimeter=ellipsePerimeter;outlineConnect=0;aspect=fixed;outline=standard;symbol=general;" parent="1" vertex="1">
          <mxGeometry x="80" y="40" width="50" height="50" as="geometry" />
        </mxCell>
        <mxCell id="G-g3rH76fT-ggbkgVnR4-22" value="" style="points=[[0.145,0.145,0],[0.5,0,0],[0.855,0.145,0],[1,0.5,0],[0.855,0.855,0],[0.5,1,0],[0.145,0.855,0],[0,0.5,0]];shape=mxgraph.bpmn.event;html=1;verticalLabelPosition=bottom;labelBackgroundColor=#ffffff;verticalAlign=top;align=center;perimeter=ellipsePerimeter;outlineConnect=0;aspect=fixed;outline=standard;symbol=general;strokeWidth=3;" parent="1" vertex="1">
          <mxGeometry x="850" y="330" width="50" height="50" as="geometry" />
        </mxCell>
        <mxCell id="G-g3rH76fT-ggbkgVnR4-23" style="edgeStyle=orthogonalEdgeStyle;rounded=0;orthogonalLoop=1;jettySize=auto;html=1;" parent="1" source="G-g3rH76fT-ggbkgVnR4-24" edge="1">
          <mxGeometry relative="1" as="geometry">
            <mxPoint x="370" y="65" as="targetPoint" />
          </mxGeometry>
        </mxCell>
        <mxCell id="G-g3rH76fT-ggbkgVnR4-24" value="" style="points=[[0.25,0,0],[0.5,0,0],[0.75,0,0],[1,0.25,0],[1,0.5,0],[1,0.75,0],[0.75,1,0],[0.5,1,0],[0.25,1,0],[0,0.75,0],[0,0.5,0],[0,0.25,0]];shape=mxgraph.bpmn.task;whiteSpace=wrap;rectStyle=rounded;size=10;html=1;container=1;expand=0;collapsible=0;taskMarker=abstract;" parent="1" vertex="1">
          <mxGeometry x="190" y="37.5" width="120" height="55" as="geometry" />
        </mxCell>
        <mxCell id="G-g3rH76fT-ggbkgVnR4-25" value="Receive order details" style="text;html=1;align=center;verticalAlign=middle;whiteSpace=wrap;rounded=0;" parent="G-g3rH76fT-ggbkgVnR4-24" vertex="1">
          <mxGeometry x="20" y="12.5" width="80" height="30" as="geometry" />
        </mxCell>
        <mxCell id="G-g3rH76fT-ggbkgVnR4-26" style="edgeStyle=orthogonalEdgeStyle;rounded=0;orthogonalLoop=1;jettySize=auto;html=1;entryX=0;entryY=0.5;entryDx=0;entryDy=0;entryPerimeter=0;" parent="1" source="G-g3rH76fT-ggbkgVnR4-21" target="G-g3rH76fT-ggbkgVnR4-24" edge="1">
          <mxGeometry relative="1" as="geometry" />
        </mxCell>
        <mxCell id="G-g3rH76fT-ggbkgVnR4-27" style="edgeStyle=orthogonalEdgeStyle;rounded=0;orthogonalLoop=1;jettySize=auto;html=1;exitX=0.5;exitY=1;exitDx=0;exitDy=0;exitPerimeter=0;" parent="1" source="G-g3rH76fT-ggbkgVnR4-28" edge="1">
          <mxGeometry relative="1" as="geometry">
            <mxPoint x="655" y="140" as="targetPoint" />
            <mxPoint x="590" y="90" as="sourcePoint" />
            <Array as="points">
              <mxPoint x="565" y="140" />
            </Array>
          </mxGeometry>
        </mxCell>
        <mxCell id="G-g3rH76fT-ggbkgVnR4-28" value="" style="points=[[0.25,0.25,0],[0.5,0,0],[0.75,0.25,0],[1,0.5,0],[0.75,0.75,0],[0.5,1,0],[0.25,0.75,0],[0,0.5,0]];shape=mxgraph.bpmn.gateway2;html=1;verticalLabelPosition=bottom;labelBackgroundColor=#ffffff;verticalAlign=top;align=center;perimeter=rhombusPerimeter;outlineConnect=0;outline=none;symbol=none;gwType=parallel;" parent="1" vertex="1">
          <mxGeometry x="540" y="40" width="50" height="50" as="geometry" />
        </mxCell>
        <mxCell id="G-g3rH76fT-ggbkgVnR4-29" value="" style="points=[[0.25,0,0],[0.5,0,0],[0.75,0,0],[1,0.25,0],[1,0.5,0],[1,0.75,0],[0.75,1,0],[0.5,1,0],[0.25,1,0],[0,0.75,0],[0,0.5,0],[0,0.25,0]];shape=mxgraph.bpmn.task;whiteSpace=wrap;rectStyle=rounded;size=10;html=1;container=1;expand=0;collapsible=0;taskMarker=abstract;" parent="1" vertex="1">
          <mxGeometry x="369" y="37.5" width="120" height="55" as="geometry" />
        </mxCell>
        <mxCell id="G-g3rH76fT-ggbkgVnR4-30" value="Check Inventory and Supplier Orders" style="text;html=1;align=center;verticalAlign=middle;whiteSpace=wrap;rounded=0;" parent="G-g3rH76fT-ggbkgVnR4-29" vertex="1">
          <mxGeometry x="5" y="12.5" width="115" height="30" as="geometry" />
        </mxCell>
        <mxCell id="G-g3rH76fT-ggbkgVnR4-31" style="edgeStyle=orthogonalEdgeStyle;rounded=0;orthogonalLoop=1;jettySize=auto;html=1;entryX=0;entryY=0.5;entryDx=0;entryDy=0;entryPerimeter=0;" parent="1" source="G-g3rH76fT-ggbkgVnR4-29" target="G-g3rH76fT-ggbkgVnR4-28" edge="1">
          <mxGeometry relative="1" as="geometry" />
        </mxCell>
        <mxCell id="G-g3rH76fT-ggbkgVnR4-32" value="" style="points=[[0.25,0,0],[0.5,0,0],[0.75,0,0],[1,0.25,0],[1,0.5,0],[1,0.75,0],[0.75,1,0],[0.5,1,0],[0.25,1,0],[0,0.75,0],[0,0.5,0],[0,0.25,0]];shape=mxgraph.bpmn.task;whiteSpace=wrap;rectStyle=rounded;size=10;html=1;container=1;expand=0;collapsible=0;taskMarker=abstract;" parent="1" vertex="1">
          <mxGeometry x="640" y="-60" width="120" height="80" as="geometry" />
        </mxCell>
        <mxCell id="G-g3rH76fT-ggbkgVnR4-33" style="edgeStyle=orthogonalEdgeStyle;rounded=0;orthogonalLoop=1;jettySize=auto;html=1;" parent="G-g3rH76fT-ggbkgVnR4-32" edge="1">
          <mxGeometry relative="1" as="geometry">
            <mxPoint x="272" y="90" as="targetPoint" />
            <mxPoint x="119.5" y="40" as="sourcePoint" />
          </mxGeometry>
        </mxCell>
        <mxCell id="G-g3rH76fT-ggbkgVnR4-34" value="Send to&amp;nbsp;&lt;span style=&quot;font-family: Calibri; font-size: 10.5pt; background-color: initial;&quot;&gt;Inventory Control System&lt;/span&gt;" style="text;html=1;align=center;verticalAlign=middle;whiteSpace=wrap;rounded=0;" parent="G-g3rH76fT-ggbkgVnR4-32" vertex="1">
          <mxGeometry x="2.5" y="18.18" width="115" height="43.64" as="geometry" />
        </mxCell>
        <mxCell id="G-g3rH76fT-ggbkgVnR4-35" value="" style="points=[[0.25,0,0],[0.5,0,0],[0.75,0,0],[1,0.25,0],[1,0.5,0],[1,0.75,0],[0.75,1,0],[0.5,1,0],[0.25,1,0],[0,0.75,0],[0,0.5,0],[0,0.25,0]];shape=mxgraph.bpmn.task;whiteSpace=wrap;rectStyle=rounded;size=10;html=1;container=1;expand=0;collapsible=0;taskMarker=abstract;" parent="1" vertex="1">
          <mxGeometry x="655" y="110" width="120" height="70" as="geometry" />
        </mxCell>
        <mxCell id="G-g3rH76fT-ggbkgVnR4-36" value="Send to Supplier" style="text;html=1;align=center;verticalAlign=middle;whiteSpace=wrap;rounded=0;" parent="G-g3rH76fT-ggbkgVnR4-35" vertex="1">
          <mxGeometry x="7.5" y="15.91" width="105" height="38.18" as="geometry" />
        </mxCell>
        <mxCell id="G-g3rH76fT-ggbkgVnR4-37" style="edgeStyle=orthogonalEdgeStyle;rounded=0;orthogonalLoop=1;jettySize=auto;html=1;exitX=0.5;exitY=0;exitDx=0;exitDy=0;exitPerimeter=0;entryX=0;entryY=0.5;entryDx=0;entryDy=0;entryPerimeter=0;" parent="1" source="G-g3rH76fT-ggbkgVnR4-28" target="G-g3rH76fT-ggbkgVnR4-32" edge="1">
          <mxGeometry relative="1" as="geometry" />
        </mxCell>
        <mxCell id="G-g3rH76fT-ggbkgVnR4-47" style="edgeStyle=orthogonalEdgeStyle;rounded=0;orthogonalLoop=1;jettySize=auto;html=1;entryX=0.5;entryY=0;entryDx=0;entryDy=0;entryPerimeter=0;" parent="1" source="G-g3rH76fT-ggbkgVnR4-38" target="G-g3rH76fT-ggbkgVnR4-42" edge="1">
          <mxGeometry relative="1" as="geometry">
            <mxPoint x="450" y="200" as="targetPoint" />
            <Array as="points">
              <mxPoint x="1041" y="63" />
              <mxPoint x="1041" y="200" />
              <mxPoint x="320" y="200" />
            </Array>
          </mxGeometry>
        </mxCell>
        <mxCell id="G-g3rH76fT-ggbkgVnR4-38" value="" style="points=[[0.25,0,0],[0.5,0,0],[0.75,0,0],[1,0.25,0],[1,0.5,0],[1,0.75,0],[0.75,1,0],[0.5,1,0],[0.25,1,0],[0,0.75,0],[0,0.5,0],[0,0.25,0]];shape=mxgraph.bpmn.task;whiteSpace=wrap;rectStyle=rounded;size=10;html=1;container=1;expand=0;collapsible=0;taskMarker=abstract;" parent="1" vertex="1">
          <mxGeometry x="830" y="35" width="150" height="55" as="geometry" />
        </mxCell>
        <mxCell id="G-g3rH76fT-ggbkgVnR4-39" value="&lt;p class=&quot;MsoNormal&quot;&gt;Schedule production&lt;/p&gt;" style="text;html=1;align=center;verticalAlign=middle;whiteSpace=wrap;rounded=0;" parent="G-g3rH76fT-ggbkgVnR4-38" vertex="1">
          <mxGeometry x="18.75" y="12.5" width="121.25" height="30" as="geometry" />
        </mxCell>
        <mxCell id="G-g3rH76fT-ggbkgVnR4-40" style="edgeStyle=orthogonalEdgeStyle;rounded=0;orthogonalLoop=1;jettySize=auto;html=1;entryX=0.5;entryY=1;entryDx=0;entryDy=0;entryPerimeter=0;" parent="1" edge="1">
          <mxGeometry relative="1" as="geometry">
            <mxPoint x="912" y="90" as="targetPoint" />
            <mxPoint x="774.5" y="145" as="sourcePoint" />
          </mxGeometry>
        </mxCell>
        <mxCell id="G-g3rH76fT-ggbkgVnR4-52" style="edgeStyle=orthogonalEdgeStyle;rounded=0;orthogonalLoop=1;jettySize=auto;html=1;" parent="1" source="G-g3rH76fT-ggbkgVnR4-42" target="G-g3rH76fT-ggbkgVnR4-48" edge="1">
          <mxGeometry relative="1" as="geometry" />
        </mxCell>
        <mxCell id="G-g3rH76fT-ggbkgVnR4-42" value="" style="points=[[0.25,0,0],[0.5,0,0],[0.75,0,0],[1,0.25,0],[1,0.5,0],[1,0.75,0],[0.75,1,0],[0.5,1,0],[0.25,1,0],[0,0.75,0],[0,0.5,0],[0,0.25,0]];shape=mxgraph.bpmn.task;whiteSpace=wrap;rectStyle=rounded;size=10;html=1;container=1;expand=0;collapsible=0;taskMarker=abstract;" parent="1" vertex="1">
          <mxGeometry x="260" y="320" width="120" height="70" as="geometry" />
        </mxCell>
        <mxCell id="G-g3rH76fT-ggbkgVnR4-43" value="Get meals" style="text;html=1;align=center;verticalAlign=middle;whiteSpace=wrap;rounded=0;" parent="G-g3rH76fT-ggbkgVnR4-42" vertex="1">
          <mxGeometry x="7.5" y="15.91" width="105" height="38.18" as="geometry" />
        </mxCell>
        <mxCell id="G-g3rH76fT-ggbkgVnR4-48" value="" style="points=[[0.25,0,0],[0.5,0,0],[0.75,0,0],[1,0.25,0],[1,0.5,0],[1,0.75,0],[0.75,1,0],[0.5,1,0],[0.25,1,0],[0,0.75,0],[0,0.5,0],[0,0.25,0]];shape=mxgraph.bpmn.task;whiteSpace=wrap;rectStyle=rounded;size=10;html=1;container=1;expand=0;collapsible=0;taskMarker=abstract;" parent="1" vertex="1">
          <mxGeometry x="460" y="320" width="120" height="70" as="geometry" />
        </mxCell>
        <mxCell id="G-g3rH76fT-ggbkgVnR4-49" value="Send to Delivery System" style="text;html=1;align=center;verticalAlign=middle;whiteSpace=wrap;rounded=0;" parent="G-g3rH76fT-ggbkgVnR4-48" vertex="1">
          <mxGeometry x="7.5" y="15.91" width="105" height="38.18" as="geometry" />
        </mxCell>
        <mxCell id="G-g3rH76fT-ggbkgVnR4-58" value="" style="edgeStyle=orthogonalEdgeStyle;rounded=0;orthogonalLoop=1;jettySize=auto;html=1;" parent="1" source="G-g3rH76fT-ggbkgVnR4-54" target="G-g3rH76fT-ggbkgVnR4-22" edge="1">
          <mxGeometry relative="1" as="geometry" />
        </mxCell>
        <mxCell id="G-g3rH76fT-ggbkgVnR4-54" value="" style="points=[[0.25,0,0],[0.5,0,0],[0.75,0,0],[1,0.25,0],[1,0.5,0],[1,0.75,0],[0.75,1,0],[0.5,1,0],[0.25,1,0],[0,0.75,0],[0,0.5,0],[0,0.25,0]];shape=mxgraph.bpmn.task;whiteSpace=wrap;rectStyle=rounded;size=10;html=1;container=1;expand=0;collapsible=0;taskMarker=abstract;" parent="1" vertex="1">
          <mxGeometry x="650" y="320" width="150" height="70" as="geometry" />
        </mxCell>
        <mxCell id="G-g3rH76fT-ggbkgVnR4-55" value="Synchronise information with the Delivery System" style="text;html=1;align=center;verticalAlign=middle;whiteSpace=wrap;rounded=0;" parent="G-g3rH76fT-ggbkgVnR4-54" vertex="1">
          <mxGeometry x="9.375" y="15.91" width="131.25" height="38.18" as="geometry" />
        </mxCell>
        <mxCell id="G-g3rH76fT-ggbkgVnR4-56" style="edgeStyle=orthogonalEdgeStyle;rounded=0;orthogonalLoop=1;jettySize=auto;html=1;entryX=0;entryY=0.5;entryDx=0;entryDy=0;entryPerimeter=0;" parent="1" source="G-g3rH76fT-ggbkgVnR4-48" target="G-g3rH76fT-ggbkgVnR4-54" edge="1">
          <mxGeometry relative="1" as="geometry" />
        </mxCell>
      </root>
    </mxGraphModel>
  </diagram>
</mxfile>
